<svg width="30" height="26" viewBox="0 0 30 26" fill="none" xmlns="http://www.w3.org/2000/svg">
<g id="Group">
<g id="Group_2">
<path id="Vector" d="M29.7882 2.12698L29.5265 2.27431C28.7415 2.72548 28.2836 3.37923 28.1714 4.22634L28.106 4.69594L27.9752 4.23555C27.7602 3.47131 27.2182 2.90964 26.3023 2.55054L26.0312 2.44004L26.3023 2.32034C27.0406 1.99807 27.4705 1.38116 27.6481 0.368309L27.7135 0L27.835 0.349893C28.1621 1.27067 28.7041 1.82313 29.4985 2.04411L29.7789 2.12698H29.7882Z" fill="#231F20"/>
<path id="Vector_2" d="M24.3055 11.0279L25.8569 9.55469C25.941 9.67439 25.9971 9.8125 26.0158 9.95983L27.427 19.8305C27.455 20.0515 27.4083 20.2541 27.3148 20.429L27.1746 20.4014L18.5859 16.6354L18.6981 16.3776L19.9784 15.153L24.3055 11.0187V11.0279Z" fill="#E79B29"/>
<path id="Vector_3" d="M27.1568 20.4061L27.297 20.4337C27.1661 20.6731 26.9325 20.8481 26.6521 20.9033L8.06352 24.789C7.82053 24.835 7.58688 24.7982 7.39062 24.6877L14.8765 17.0361L15.5494 16.3547C15.7924 16.1061 16.1102 15.9588 16.456 15.922C16.6989 15.8943 16.9513 15.9404 17.1943 16.0417L18.5681 16.6494L27.1568 20.4153V20.4061Z" fill="#E79B29"/>
<path id="Vector_4" d="M25.8561 9.54605L24.3047 11.0193L24.3981 8.46875L25.6131 9.28824C25.7159 9.35269 25.7907 9.44477 25.8654 9.53685L25.8561 9.54605Z" fill="#D87A27"/>
<path id="Vector_5" d="M24.485 5.83594L24.3915 8.47855L24.3074 11.0291L19.971 15.1634L19.1392 14.3162L16.3449 14.5464L12.4383 14.8779L12.0552 15.8079L9.71875 14.8595L9.76548 14.7582L10.3169 7.18026L10.5972 6.88562L20.9056 6.10296L24.485 5.83594Z" fill="white"/>
<path id="Vector_6" d="M20.9099 6.09797L10.6016 6.87142L14.4894 2.72795C14.8165 2.37805 15.3585 2.32281 15.7604 2.58983L20.9192 6.08876L20.9099 6.09797Z" fill="#D87A27"/>
<path id="Vector_7" d="M19.1366 14.3295L19.9777 15.1766L18.6973 16.4013L18.5852 16.6591L17.2114 16.0514C16.9777 15.9501 16.7254 15.9132 16.4731 15.9317L16.3516 14.5597L19.1459 14.3203L19.1366 14.3295Z" fill="white"/>
<path id="Vector_8" d="M16.3459 14.5405L16.4674 15.9124C16.1309 15.9492 15.8038 16.0966 15.5609 16.3452L14.888 17.0265L14.7291 16.8792L12.0469 15.7927L12.43 14.8627L16.3365 14.5312L16.3459 14.5405Z" fill="white"/>
<path id="Vector_9" d="M14.8864 17.0358L7.40046 24.6782C7.14812 24.5493 6.97056 24.3099 6.91448 24.0152L5.00796 13.4079C4.97992 13.2698 4.98927 13.1133 5.036 12.9844L9.72754 14.872L12.064 15.8204L14.7462 16.9069L14.9051 17.0542L14.8864 17.0358Z" fill="#E79B29"/>
<path id="Vector_10" d="M5.26336 12.5846L10.3287 7.17969L9.77733 14.7576L9.7306 14.8681L5.03906 12.9805C5.07645 12.8424 5.15121 12.7043 5.26336 12.5846Z" fill="#D87A27"/>
<path id="Vector_11" d="M6.4018 5.69397L5.96256 5.94258C4.62612 6.70682 3.85043 7.83016 3.65417 9.25735L3.54202 10.0676L3.31772 9.28498C2.95324 7.96827 2.01867 7.02909 0.467285 6.41217L0 6.22801L0.45794 6.02545C1.71961 5.48219 2.44857 4.4233 2.74764 2.71067L2.85978 2.09375L3.07474 2.69225C3.62613 4.25756 4.5607 5.19675 5.90648 5.57427L6.39246 5.70318L6.4018 5.69397Z" fill="#231F20"/>
</g>
<g id="Group_3">
<path id="Vector_12" d="M20.8805 6.09944L15.7217 2.6005C15.3198 2.33348 14.7871 2.37952 14.4507 2.73862L10.5629 6.88209L10.2825 7.17674L5.21714 12.5817C5.10499 12.6922 5.03022 12.8303 4.99284 12.9776C4.94611 13.1157 4.94611 13.263 4.9648 13.4012L6.87133 24.0084C6.9274 24.3123 7.11431 24.5425 7.3573 24.6806C7.55356 24.7911 7.7872 24.8279 8.03019 24.7819L26.6188 20.8962C26.8992 20.841 27.1328 20.6568 27.2636 20.4266C27.3664 20.2517 27.4038 20.0399 27.3758 19.8281L25.9646 9.95747C25.9459 9.81015 25.8805 9.67203 25.8057 9.55233C25.7403 9.45104 25.6562 9.36818 25.5534 9.30372L24.3384 8.48424" stroke="#231F20" stroke-width="0.98" stroke-miterlimit="10"/>
<path id="Vector_13" d="M4.90625 12.9219L5.00905 12.9679L9.70059 14.8555L12.037 15.8039L14.7192 16.8812" stroke="#231F20" stroke-width="0.98" stroke-miterlimit="10"/>
<path id="Vector_14" d="M25.8961 9.49219L25.84 9.54744L24.2886 11.0299L19.9522 15.1641L18.6719 16.3888" stroke="#231F20" stroke-width="0.98" stroke-miterlimit="10"/>
<path id="Vector_15" d="M27.149 20.4042L18.5603 16.6382L17.1865 16.0305C16.9528 15.9292 16.7005 15.8924 16.4481 15.9108C16.1117 15.9476 15.7846 16.095 15.5416 16.3436L14.8687 17.0249L7.38281 24.6673" stroke="#231F20" stroke-width="0.98" stroke-miterlimit="10"/>
<path id="Vector_16" d="M12.6016 9.28042L21.5921 8.71875" stroke="#231F20" stroke-width="0.98" stroke-miterlimit="10"/>
<path id="Vector_17" d="M12.6016 11.2349L21.5921 10.6641" stroke="#231F20" stroke-width="0.98" stroke-miterlimit="10"/>
<path id="Vector_18" d="M12.2344 13.0539L21.2249 12.4922" stroke="#231F20" stroke-width="0.98" stroke-miterlimit="10"/>
<path id="Vector_19" d="M12.4062 14.8742L16.3128 14.5427L19.1071 14.3125" stroke="#231F20" stroke-width="0.98" stroke-miterlimit="10"/>
<path id="Vector_20" d="M9.75 14.7582L10.3014 7.18026L10.3201 6.90403L10.5818 6.88562L20.8901 6.10296L24.4695 5.83594L24.376 8.47855L24.2919 11.0291L24.2826 11.2409" stroke="#231F20" stroke-width="0.98" stroke-miterlimit="10"/>
</g>
</g>
</svg>
