<svg width="27" height="28" viewBox="0 0 27 28" fill="none" xmlns="http://www.w3.org/2000/svg">
<g id="Group 73">
<g id="Group">
<path id="Vector" d="M9.06443 2.83989C9.18292 2.79038 9.31129 2.76562 9.43966 2.76562C9.56803 2.76562 9.69639 2.79038 9.80501 2.85226C9.92351 2.90177 10.0223 2.98841 10.1111 3.11218C10.2 3.23595 10.2691 3.38448 10.3185 3.57014C10.3777 3.81768 10.4074 4.04046 10.3876 4.25087C10.3679 4.44891 10.3284 4.64694 10.2691 4.84497C10.2099 5.03063 10.1309 5.22866 10.042 5.41432C9.95313 5.59998 9.85439 5.81039 9.76552 6.0208C9.67664 6.24358 9.59765 6.47875 9.52853 6.75104C9.45941 7.01096 9.41003 7.32039 9.39028 7.65457C9.22242 7.39465 9.04468 7.18424 8.86693 7.01096C8.68919 6.85006 8.51145 6.70153 8.34358 6.59014C8.17572 6.47875 8.00785 6.36735 7.83998 6.28071C7.67212 6.19407 7.53387 6.09506 7.39563 5.98366C7.25739 5.87227 7.13889 5.73612 7.03027 5.57522C6.92165 5.41432 6.84266 5.21629 6.78341 4.96874C6.73404 4.78309 6.72416 4.60981 6.74391 4.44891C6.76366 4.28801 6.81303 4.13948 6.88215 4.01571C6.95128 3.89194 7.04015 3.78054 7.14877 3.68153C7.25739 3.59489 7.37588 3.52063 7.49437 3.47112C7.65237 3.40923 7.81036 3.40923 7.97823 3.47112C8.14609 3.52063 8.29421 3.61964 8.42258 3.76817C8.46208 3.55776 8.54108 3.3721 8.65957 3.2112C8.77806 3.0503 8.90643 2.9389 9.06443 2.87702V2.83989Z" fill="#EB1C24"/>
<path id="Vector_2" d="M9.31635 8.03194L9.19785 7.85866C9.03986 7.62349 8.88187 7.42546 8.72388 7.27694C8.55601 7.11604 8.38814 6.97989 8.23015 6.88087C8.06228 6.76948 7.90429 6.67046 7.7463 6.58382C7.56856 6.4848 7.41057 6.37341 7.26245 6.24964C7.10445 6.11349 6.96621 5.96497 6.83784 5.77931C6.70947 5.59365 6.61073 5.34611 6.53173 5.04906C6.47249 4.8139 6.45274 4.59111 6.48236 4.36832C6.51198 4.15791 6.57123 3.95988 6.6601 3.79898C6.74897 3.63808 6.85759 3.50193 6.99584 3.37816C7.1242 3.26676 7.26245 3.18013 7.41057 3.13062C7.60806 3.05636 7.8253 3.04398 8.04253 3.11824C8.13141 3.14299 8.22028 3.18013 8.29927 3.22963C8.34865 3.13062 8.39802 3.04398 8.45727 2.95734C8.60538 2.74693 8.78313 2.5984 8.98062 2.52414C9.12873 2.46226 9.28672 2.4375 9.43484 2.4375C9.62246 2.4375 9.75083 2.47463 9.89895 2.53652C10.0471 2.61078 10.1853 2.72217 10.3038 2.88308C10.4223 3.04398 10.5112 3.24201 10.5704 3.47717C10.6395 3.76185 10.6692 4.04652 10.6494 4.29406C10.6297 4.52923 10.5902 4.76439 10.5112 4.9748C10.442 5.17283 10.363 5.38324 10.2643 5.59365C10.1754 5.77931 10.0866 5.96497 10.0076 6.17538C9.92857 6.37341 9.84957 6.60858 9.78045 6.85612C9.7212 7.09128 9.67183 7.36358 9.65208 7.673V7.89579L9.2966 8.04431L9.31635 8.03194ZM7.75617 3.73709C7.69693 3.73709 7.63768 3.73709 7.57843 3.77422C7.47969 3.81135 7.39082 3.86086 7.30195 3.93513C7.22295 3.99701 7.15383 4.08365 7.10446 4.18267C7.05508 4.26931 7.02546 4.36833 7.01558 4.47972C7.00571 4.59111 7.01558 4.71488 7.04521 4.85103C7.09458 5.06144 7.1637 5.22234 7.2427 5.34611C7.33157 5.48226 7.43031 5.59365 7.54881 5.68029C7.67718 5.77931 7.80555 5.87833 7.95366 5.95259C8.12153 6.03923 8.2894 6.15062 8.46714 6.27439C8.64488 6.39816 8.8325 6.54669 9.02999 6.73235C9.08923 6.79423 9.14848 6.85612 9.2176 6.918C9.23735 6.81898 9.2571 6.71997 9.28673 6.63333C9.35585 6.34866 9.44472 6.10111 9.54346 5.86595C9.63233 5.64316 9.73108 5.43275 9.82982 5.23472C9.91869 5.06144 9.98782 4.88816 10.0372 4.71488C10.0866 4.55398 10.1261 4.39308 10.1359 4.2198C10.1458 4.0589 10.1359 3.87324 10.0767 3.67521C10.0471 3.53906 9.99769 3.42767 9.92857 3.35341C9.86932 3.26677 9.79033 3.20488 9.7212 3.16775C9.63233 3.13062 9.54346 3.11824 9.45459 3.10586C9.35585 3.10586 9.24723 3.13062 9.14848 3.16775C9.03986 3.20488 8.94112 3.29152 8.86212 3.40291C8.77325 3.52668 8.714 3.66283 8.68438 3.82373L8.57576 4.35595L8.2499 3.98463C8.16103 3.88562 8.05241 3.81135 7.92404 3.77422C7.86479 3.76185 7.81542 3.74947 7.75617 3.74947V3.73709Z" fill="#231F20"/>
</g>
<g id="Group_2">
<g id="Group_3">
<path id="Vector_3" d="M5.85827 16.266L7.03333 19.9492L18.3594 16.3648L22.1019 15.1798L20.6799 10.6869L18.3693 3.42913L3.30076 8.19853L5.86814 16.2759L5.85827 16.266ZM19.416 1L25.7554 21.0157L7.33945 26.8515L1 6.84572L19.416 1ZM16.6709 20.828C16.6709 19.8603 15.7723 19.0803 14.6565 19.0803C13.5406 19.0803 12.6421 19.8603 12.6421 20.828C12.6421 21.3711 12.9284 21.855 13.3728 22.171L13.4715 23.5929L14.6565 22.5758C15.7723 22.5758 16.6709 21.7957 16.6709 20.828Z" fill="white"/>
<path id="Vector_4" d="M20.6669 10.6725L22.0889 15.1654L18.3464 16.3504V16.3109L14.0312 13.0819L15.9469 10.0406C16.3024 9.47771 17.0134 9.2506 17.6256 9.49746L20.5978 10.6923L20.6571 10.6725H20.6669Z" fill="#37B24A"/>
<path id="Vector_5" d="M20.6839 10.6718L20.6246 10.6916L17.6524 9.49677C17.0303 9.24991 16.3292 9.47702 15.9737 10.0399L14.058 13.0812L13.7223 12.8344L10.9574 10.7508C10.5131 10.4151 9.88112 10.5138 9.55526 10.978L5.87206 16.2608L3.30469 8.18346L18.3732 3.41406L20.6839 10.6718ZM14.5024 8.09459C14.5024 7.49224 14.0185 7.00839 13.4162 7.00839C12.8139 7.00839 12.33 7.49224 12.33 8.09459C12.33 8.69693 12.8139 9.18079 13.4162 9.18079C14.0185 9.18079 14.5024 8.69693 14.5024 8.09459Z" fill="#3CADA7"/>
<path id="Vector_6" d="M14.0396 13.0909L18.335 16.3199V16.3594L7.01882 19.9438L5.84375 16.2606L9.52695 10.9777C9.84293 10.5235 10.4848 10.4149 10.9291 10.7506L13.694 12.8342L14.0297 13.081L14.0396 13.0909Z" fill="#37B24A"/>
<path id="Vector_7" d="M14.6628 19.0859C15.7787 19.0859 16.6772 19.866 16.6772 20.8337C16.6772 21.8014 15.7787 22.5815 14.6628 22.5815L13.4779 23.5986L13.3792 22.1767C12.9348 21.8607 12.6484 21.3768 12.6484 20.8337C12.6484 19.866 13.547 19.0859 14.6628 19.0859Z" fill="#3CADA7"/>
<path id="Vector_8" d="M13.4143 9.18802C14.0142 9.18802 14.5005 8.70171 14.5005 8.10182C14.5005 7.50193 14.0142 7.01562 13.4143 7.01562C12.8144 7.01562 12.3281 7.50193 12.3281 8.10182C12.3281 8.70171 12.8144 9.18802 13.4143 9.18802Z" fill="#EFBB27"/>
</g>
<g id="Group_4">
<path id="Vector_9" d="M19.4209 1.01946L1 6.85938L7.34423 26.871L25.7651 21.0311L19.4209 1.01946Z" stroke="#231F20" stroke-width="0.61" stroke-miterlimit="10"/>
<path id="Vector_10" d="M20.6937 10.6797L22.1157 15.1726L18.3732 16.3575L7.04713 19.942L5.87206 16.2686L3.30469 8.19127L18.3831 3.42188L20.6937 10.6797Z" stroke="#231F20" stroke-width="0.61" stroke-miterlimit="10"/>
<path id="Vector_11" d="M14.6628 19.0781C13.5569 19.0781 12.6484 19.8582 12.6484 20.8259C12.6484 21.369 12.9348 21.8529 13.3792 22.1689L13.4779 23.5908L14.6628 22.5737C15.7787 22.5737 16.6772 21.7936 16.6772 20.8259C16.6772 19.8582 15.7787 19.0781 14.6628 19.0781Z" stroke="#231F20" stroke-width="0.61" stroke-miterlimit="10"/>
<path id="Vector_12" d="M5.86719 16.2627L9.55039 10.9699C9.86637 10.5157 10.5082 10.4071 10.9526 10.7428L13.7174 12.8263L14.0532 13.0732L18.3486 16.3022" stroke="#231F20" stroke-width="0.61" stroke-miterlimit="10"/>
<path id="Vector_13" d="M20.6176 10.6923L17.6453 9.49746C17.0232 9.2506 16.3221 9.47771 15.9667 10.0406L14.051 13.0819L14.0312 13.1115" stroke="#231F20" stroke-width="0.61" stroke-miterlimit="10"/>
<path id="Vector_14" d="M13.4143 9.18802C14.0142 9.18802 14.5005 8.70171 14.5005 8.10182C14.5005 7.50193 14.0142 7.01562 13.4143 7.01562C12.8144 7.01562 12.3281 7.50193 12.3281 8.10182C12.3281 8.70171 12.8144 9.18802 13.4143 9.18802Z" stroke="#231F20" stroke-width="0.61" stroke-miterlimit="10"/>
</g>
</g>
</g>
</svg>
