<svg width="576" height="48" viewBox="0 0 576 48" fill="none" xmlns="http://www.w3.org/2000/svg">
<path d="M183.424 12.536V35H177.952V21.528L172.928 35H168.512L163.456 21.496V35H157.984V12.536H164.448L170.752 28.088L176.992 12.536H183.424ZM192.831 16.92V21.464H200.159V25.688H192.831V30.616H201.119V35H187.359V12.536H201.119V16.92H192.831ZM210.144 16.92V21.464H217.472V25.688H210.144V30.616H218.432V35H204.672V12.536H218.432V16.92H210.144ZM238.144 12.536V16.92H232.192V35H226.72V16.92H220.768V12.536H238.144ZM273.112 12.536V35H267.64V21.528L262.616 35H258.2L253.144 21.496V35H247.672V12.536H254.135L260.44 28.088L266.68 12.536H273.112ZM291.031 31.032H282.647L281.303 35H275.575L283.703 12.536H290.039L298.167 35H292.375L291.031 31.032ZM289.623 26.808L286.839 18.584L284.087 26.808H289.623ZM320.096 12.536V35H314.624V25.752H306.112V35H300.64V12.536H306.112V21.336H314.624V12.536H320.096ZM349.487 12.536V35H344.015V21.528L338.991 35H334.575L329.519 21.496V35H324.047V12.536H330.51L336.815 28.088L343.055 12.536H349.487ZM364.046 35.224C361.934 35.224 359.992 34.7333 358.222 33.752C356.472 32.7707 355.075 31.4053 354.03 29.656C353.005 27.8853 352.493 25.9013 352.493 23.704C352.493 21.5067 353.005 19.5333 354.03 17.784C355.075 16.0347 356.472 14.6693 358.222 13.688C359.992 12.7067 361.934 12.216 364.046 12.216C366.158 12.216 368.088 12.7067 369.838 13.688C371.608 14.6693 372.995 16.0347 373.998 17.784C375.022 19.5333 375.534 21.5067 375.534 23.704C375.534 25.9013 375.022 27.8853 373.998 29.656C372.974 31.4053 371.587 32.7707 369.838 33.752C368.088 34.7333 366.158 35.224 364.046 35.224ZM364.046 30.232C365.838 30.232 367.267 29.6347 368.333 28.44C369.422 27.2453 369.966 25.6667 369.966 23.704C369.966 21.72 369.422 20.1413 368.333 18.968C367.267 17.7733 365.838 17.176 364.046 17.176C362.232 17.176 360.782 17.7627 359.694 18.936C358.627 20.1093 358.094 21.6987 358.094 23.704C358.094 25.688 358.627 27.2773 359.694 28.472C360.782 29.6453 362.232 30.232 364.046 30.232ZM383.954 12.536V25.976C383.954 27.32 384.284 28.3547 384.946 29.08C385.607 29.8053 386.578 30.168 387.858 30.168C389.138 30.168 390.119 29.8053 390.802 29.08C391.484 28.3547 391.826 27.32 391.826 25.976V12.536H397.298V25.944C397.298 27.9493 396.871 29.6453 396.018 31.032C395.164 32.4187 394.012 33.464 392.562 34.168C391.132 34.872 389.532 35.224 387.762 35.224C385.991 35.224 384.402 34.8827 382.994 34.2C381.607 33.496 380.508 32.4507 379.698 31.064C378.887 29.656 378.482 27.9493 378.482 25.944V12.536H383.954ZM409.556 12.536C411.924 12.536 413.994 13.0053 415.764 13.944C417.535 14.8827 418.9 16.2053 419.86 17.912C420.842 19.5973 421.332 21.5493 421.332 23.768C421.332 25.9653 420.842 27.9173 419.86 29.624C418.9 31.3307 417.524 32.6533 415.732 33.592C413.962 34.5307 411.903 35 409.556 35H401.14V12.536H409.556ZM409.204 30.264C411.274 30.264 412.884 29.6987 414.036 28.568C415.188 27.4373 415.764 25.8373 415.764 23.768C415.764 21.6987 415.188 20.088 414.036 18.936C412.884 17.784 411.274 17.208 409.204 17.208H406.612V30.264H409.204Z" fill="#EA5C7E"/>
<path d="M434 23L576 23" stroke="#EA5C7E" stroke-width="2"/>
<path d="M0 23L142 23" stroke="#EA5C7E" stroke-width="2"/>
</svg>
