<svg width="24" height="26" viewBox="0 0 24 26" fill="none" xmlns="http://www.w3.org/2000/svg">
<g id="Group 74">
<g id="Group">
<g id="Group_2">
<path id="Vector" d="M13.7318 10.2057C13.2778 10.1662 12.8731 9.86022 12.7053 9.4062L11.3038 5.58656L10.8794 4.43179C10.682 3.89882 10.9978 3.3165 11.5505 3.17832L20.4433 1.02669C20.9467 0.908249 21.45 1.19448 21.6079 1.6781L23.197 6.56368C23.3352 6.98808 23.1082 7.43223 22.6837 7.57041L15.8735 9.85034C15.8735 9.85034 15.4787 10.9262 14.4424 11.9822C14.1167 12.3178 13.712 12.6633 13.2482 12.9594C12.6954 13.3147 12.0342 13.6108 11.2742 13.7983C11.363 13.7489 12.3105 13.216 12.9915 12.2783C13.4061 11.7158 13.7318 11.015 13.7318 10.1859V10.2057ZM20.8973 4.42192C20.8973 3.94817 20.5124 3.56324 20.0386 3.56324C19.5649 3.56324 19.1799 3.94817 19.1799 4.42192C19.1799 4.89567 19.5649 5.2806 20.0386 5.2806C20.5124 5.2806 20.8973 4.89567 20.8973 4.42192ZM18.2324 5.22138C18.2324 4.74763 17.8475 4.3627 17.3738 4.3627C16.9 4.3627 16.5151 4.74763 16.5151 5.22138C16.5151 5.69513 16.9 6.08006 17.3738 6.08006C17.8475 6.08006 18.2324 5.69513 18.2324 5.22138ZM15.5676 6.02084C15.5676 5.54709 15.1827 5.16216 14.7089 5.16216C14.2351 5.16216 13.8502 5.54709 13.8502 6.02084C13.8502 6.49459 14.2351 6.87952 14.7089 6.87952C15.1827 6.87952 15.5676 6.49459 15.5676 6.02084Z" fill="#EFBB27"/>
<path id="Vector_2" d="M20.0227 5.27986C20.497 5.27986 20.8814 4.89541 20.8814 4.42118C20.8814 3.94694 20.497 3.5625 20.0227 3.5625C19.5485 3.5625 19.1641 3.94694 19.1641 4.42118C19.1641 4.89541 19.5485 5.27986 20.0227 5.27986Z" fill="#EB297B"/>
<path id="Vector_3" d="M17.3665 4.36719C17.8402 4.36719 18.2252 4.75211 18.2252 5.22587C18.2252 5.69962 17.8402 6.08454 17.3665 6.08454C16.8927 6.08454 16.5078 5.69962 16.5078 5.22587C16.5078 4.75211 16.8927 4.36719 17.3665 4.36719Z" fill="#EB297B"/>
<path id="Vector_4" d="M17.462 20.3726C17.6495 21.5669 16.8895 22.7019 15.7249 23.0276L9.2009 24.8831C8.64818 25.0411 8.07573 25.0114 7.5625 24.8239C8.21391 24.7647 8.81597 23.8271 8.98376 22.9486L9.0035 22.8894C9.26012 22.9585 9.54634 22.9486 9.81283 22.8598L13.1982 21.8235L16.623 20.7773C17.0376 20.6588 17.3041 20.264 17.2744 19.8594C17.3238 19.8594 17.4028 20.0568 17.4521 20.3627L17.462 20.3726Z" fill="#3CADA7"/>
<path id="Vector_5" d="M17.2774 19.884C17.2972 20.2886 17.0406 20.6834 16.626 20.8019L13.2012 21.8481L12.9939 21.167C13.211 21.0782 13.3591 20.8611 13.3591 20.6143C13.3591 20.2788 13.0926 20.0123 12.757 20.0123C12.7176 20.0123 12.6781 20.0123 12.6386 20.0221L12.4609 19.3115L14.7113 18.7588C15.0666 18.67 15.264 18.2949 15.1357 17.9495L13.2407 12.9849C13.7045 12.6888 14.1092 12.3434 14.4349 12.0078L17.2182 19.5977C17.2478 19.6866 17.2676 19.7853 17.2774 19.8741V19.884Z" fill="#3CADA7"/>
<path id="Vector_6" d="M14.6946 5.14844C15.1684 5.14844 15.5533 5.53336 15.5533 6.00712C15.5533 6.48087 15.1684 6.86579 14.6946 6.86579C14.2209 6.86579 13.8359 6.48087 13.8359 6.00712C13.8359 5.53336 14.2209 5.14844 14.6946 5.14844Z" fill="#EB297B"/>
<path id="Vector_7" d="M11.2527 13.8147C12.0225 13.6272 12.6739 13.3212 13.2266 12.9758L15.1217 17.9403C15.25 18.2858 15.0526 18.6608 14.6973 18.7496L12.4469 19.3023L9.50571 20.0228C9.26883 20.0821 9.02208 19.9538 8.93325 19.7268L4.44247 8.26784C4.31416 7.94213 4.54117 7.58682 4.89648 7.56708L10.4137 7.25124C10.7789 7.2315 11.1145 7.44864 11.2428 7.79408L12.97 12.2947C12.2791 13.2324 11.3415 13.7654 11.2527 13.8147Z" fill="white"/>
<path id="Vector_8" d="M3.24859 6.37347C3.4756 6.19581 3.75195 6.08724 4.05792 6.04776L11.3024 5.59375L12.7039 9.41339C12.8717 9.8674 13.2764 10.1734 13.7304 10.2128C13.7304 11.0419 13.4047 11.7427 12.9901 12.3053L11.2629 7.8046C11.1346 7.45915 10.799 7.24202 10.4339 7.26176L4.9166 7.57759C4.56128 7.59733 4.33427 7.95265 4.46258 8.27835L8.95337 19.7373C9.0422 19.9643 9.28895 20.0926 9.52582 20.0334L12.467 19.3129L12.6447 20.0235C12.3683 20.0728 12.1611 20.3196 12.1611 20.6157C12.1611 20.9513 12.4276 21.2177 12.7631 21.2177C12.852 21.2177 12.9211 21.198 13 21.1684L13.2073 21.8494L9.82192 22.8858C9.54556 22.9746 9.26921 22.9845 9.01259 22.9154C8.56845 22.7969 8.19339 22.4811 8.03547 22.0172L2.73536 8.27835C2.47874 7.63681 2.6564 6.94592 3.11041 6.51165C3.15976 6.4623 3.20911 6.42282 3.25846 6.38334L3.24859 6.37347Z" fill="#3CADA7"/>
<path id="Vector_9" d="M13.3604 20.6099C13.3604 20.8566 13.2123 21.0738 12.9952 21.1626C12.9261 21.1922 12.8471 21.2119 12.7583 21.2119C12.4227 21.2119 12.1562 20.9454 12.1562 20.6099C12.1562 20.3138 12.3635 20.0769 12.6399 20.0177C12.6794 20.0078 12.7188 20.0078 12.7583 20.0078C13.084 20.0078 13.3604 20.2743 13.3604 20.6099Z" fill="#3CADA7"/>
<path id="Vector_10" d="M9.00387 22.8893L8.98413 22.9486C8.81634 23.8171 8.21428 24.7547 7.56287 24.8238C6.88185 24.5771 6.31926 24.0441 6.06265 23.3137V23.294L1.08824 9.9006C0.624354 8.35103 2.08509 6.89029 3.23987 6.36719C3.19052 6.40667 3.14117 6.44615 3.09182 6.4955C2.64768 6.92977 2.46015 7.62066 2.71676 8.2622L8.01688 22.001C8.1748 22.4551 8.55972 22.7808 8.994 22.8992L9.00387 22.8893Z" fill="#3CADA7"/>
</g>
<g id="Group_3">
<path id="Vector_11" d="M11.2742 13.8178C12.044 13.6303 12.6954 13.3243 13.2482 12.9789C13.712 12.6828 14.1167 12.3374 14.4424 12.0018C15.4787 10.9457 15.8735 9.86989 15.8735 9.86989L22.6837 7.58995C23.1082 7.45177 23.3352 7.00762 23.197 6.58322L21.6079 1.69764C21.45 1.20415 20.9368 0.917919 20.4433 1.04623L11.5505 3.19786C10.9978 3.33604 10.682 3.91836 10.8794 4.45133L11.3038 5.6061L12.7053 9.42574C12.8731 9.87976 13.2778 10.1857 13.7318 10.2252" stroke="#231F20" stroke-width="0.62" stroke-linecap="round" stroke-linejoin="round"/>
<path id="Vector_12" d="M13.731 10.2109C13.731 11.04 13.4053 11.7408 12.9908 12.3033C12.2999 13.241 11.3623 13.774 11.2734 13.8233" stroke="#231F20" stroke-width="0.62" stroke-linecap="round" stroke-linejoin="round"/>
<path id="Vector_13" d="M12.8203 9.625C12.8203 9.625 13.2151 10.4343 14.3205 10.0988" stroke="#231F20" stroke-width="0.62" stroke-linecap="round" stroke-linejoin="round"/>
<path id="Vector_14" d="M15.5689 6.02274C15.5689 6.49649 15.184 6.88142 14.7102 6.88142C14.2365 6.88142 13.8516 6.49649 13.8516 6.02274C13.8516 5.54899 14.2365 5.16406 14.7102 5.16406C15.184 5.16406 15.5689 5.54899 15.5689 6.02274Z" stroke="#231F20" stroke-width="0.62" stroke-linecap="round" stroke-linejoin="round"/>
<path id="Vector_15" d="M12.6477 20.0177C12.6477 20.0177 12.7266 20.0078 12.7661 20.0078C13.0918 20.0078 13.3682 20.2743 13.3682 20.6099C13.3682 20.8566 13.2201 21.0738 13.003 21.1626C12.9339 21.1922 12.855 21.2119 12.7661 21.2119C12.4305 21.2119 12.1641 20.9454 12.1641 20.6099C12.1641 20.3138 12.3713 20.0769 12.6477 20.0177Z" stroke="#231F20" stroke-width="0.62" stroke-linecap="round" stroke-linejoin="round"/>
<path id="Vector_16" d="M18.2252 5.21805C18.2252 5.69181 17.8402 6.07673 17.3665 6.07673C16.8927 6.07673 16.5078 5.69181 16.5078 5.21805C16.5078 4.7443 16.8927 4.35938 17.3665 4.35938C17.8402 4.35938 18.2252 4.7443 18.2252 5.21805Z" stroke="#231F20" stroke-width="0.62" stroke-linecap="round" stroke-linejoin="round"/>
<path id="Vector_17" d="M20.0384 5.27986C20.5126 5.27986 20.897 4.89541 20.897 4.42118C20.897 3.94694 20.5126 3.5625 20.0384 3.5625C19.5641 3.5625 19.1797 3.94694 19.1797 4.42118C19.1797 4.89541 19.5641 5.27986 20.0384 5.27986Z" stroke="#231F20" stroke-width="0.62" stroke-linecap="round" stroke-linejoin="round"/>
<path id="Vector_18" d="M17.2835 19.8754C17.3033 20.29 17.0467 20.6749 16.6321 20.7933L13.2073 21.8395L9.82192 22.8759C9.54556 22.9647 9.26921 22.9746 9.01259 22.9055C8.56845 22.7871 8.19339 22.4712 8.03547 22.0073L2.73536 8.26848C2.47874 7.62694 2.6564 6.93605 3.11041 6.50178C3.15976 6.45243 3.20911 6.41295 3.25846 6.37347C3.48547 6.19581 3.76182 6.08724 4.06779 6.04776L11.3123 5.59375" stroke="#231F20" stroke-width="0.62" stroke-miterlimit="10"/>
<path id="Vector_19" d="M14.4531 11.9922L17.2364 19.5821C17.266 19.6709 17.2858 19.7696 17.2956 19.8585" stroke="#231F20" stroke-width="0.62" stroke-miterlimit="10"/>
<path id="Vector_20" d="M17.2847 19.8659C17.334 19.8659 17.413 20.0731 17.4623 20.3791C17.6499 21.5734 16.8899 22.7084 15.7252 23.0341L9.20126 24.8896C8.64855 25.0476 8.0761 25.0179 7.56287 24.8304C6.88185 24.5837 6.31926 24.0507 6.06265 23.3203V23.3006L1.08824 9.90719C0.624354 8.35762 2.08509 6.89688 3.23987 6.37378C3.28922 6.34417 3.34844 6.32443 3.39779 6.30469" stroke="#231F20" stroke-width="0.62" stroke-miterlimit="10"/>
<path id="Vector_21" d="M8.98829 22.9688C8.8205 23.8373 8.21844 24.7749 7.56703 24.844C7.54729 24.844 7.52755 24.844 7.50781 24.844" stroke="#231F20" stroke-width="0.62" stroke-miterlimit="10"/>
<path id="Vector_22" d="M13.2501 12.968L15.1451 17.9325C15.2734 18.2779 15.076 18.653 14.7207 18.7418L12.4704 19.2945L9.52915 20.015C9.29227 20.0743 9.04552 19.9459 8.95669 19.7189L4.4659 8.26002C4.3376 7.93432 4.5646 7.579 4.91992 7.55926L10.4372 7.24343C10.8024 7.22369 11.1379 7.44083 11.2662 7.78627L12.9935 12.2869" stroke="#231F20" stroke-width="0.62" stroke-miterlimit="10"/>
</g>
</g>
</g>
</svg>
