<svg width="29" height="23" viewBox="0 0 29 23" fill="none" xmlns="http://www.w3.org/2000/svg">
<g id="Group 138">
<path id="Vector" d="M7.49896 19.5312C7.49896 20.9122 6.38091 21.9564 5 21.9564C3.61909 21.9564 2.5 20.8373 2.5 19.4564C2.5 18.0755 3.61805 17.0312 4.99896 17.0312C6.37987 17.0312 7.49896 18.1503 7.49896 19.5312Z" fill="#EA5C7E" stroke="black" stroke-miterlimit="10" stroke-linecap="round"/>
<path id="Vector_2" d="M18 19.5C18 20.8809 16.8809 22 15.5 22C14.1191 22 13 20.8809 13 19.5C13 18.1191 14.1191 17 15.5 17C16.8809 17 18 18.1191 18 19.5Z" fill="#EA5C7E" stroke="black" stroke-miterlimit="10" stroke-linecap="round"/>
<g id="Vector_3">
<path d="M18.7873 13H4.48314C4.00527 13 3.58392 12.6863 3.45238 12.2301L1.02604 3.83613C0.904772 3.41756 1.22232 3 1.66217 3H22.1806" fill="#3CADA7"/>
<path d="M18.7873 13H4.48314C4.00527 13 3.58392 12.6863 3.45238 12.2301L1.02604 3.83613C0.904772 3.41756 1.22232 3 1.66217 3H22.1806" stroke="black" stroke-miterlimit="10" stroke-linecap="round"/>
</g>
<path id="Vector_4" d="M4 6H21" stroke="black" stroke-miterlimit="10" stroke-linecap="round"/>
<path id="Vector_5" d="M5 9H20" stroke="black" stroke-miterlimit="10" stroke-linecap="round"/>
<path id="Vector_6" d="M5 17H15.4672C16.6136 17 17.6348 16.2797 18.0065 15.2067L22.3215 2.79332C22.6942 1.72032 23.7143 1 24.8618 1H28" stroke="black" stroke-miterlimit="10" stroke-linecap="round"/>
</g>
</svg>
